{
	"asset":{
		"generator":"Khronos glTF Blender I/O v4.1.62",
		"version":"2.0"
	},
	"scene":0,
	"scenes":[
		{
			"name":"Scene",
			"nodes":[
				0,
				1,
				2,
				3,
				4,
				5,
				6,
				7,
				8,
				9,
				10,
				11
			]
		}
	],
	"nodes":[
		{
			"mesh":0,
			"name":"Cube",
			"rotation":[
				0,
				0,
				-0.1535593420267105,
				0.9881394505500793
			],
			"translation":[
				0.35637563467025757,
				0.012688867747783661,
				0
			]
		},
		{
			"mesh":1,
			"name":"Cube.001",
			"rotation":[
				0,
				0,
				-0.15355932712554932,
				0.9881394505500793
			],
			"scale":[
				0.15026690065860748,
				0.1955554336309433,
				0.2671062648296356
			],
			"translation":[
				0.4613074064254761,
				-0.020731553435325623,
				0
			]
		},
		{
			"name":"Empty",
			"scale":[
				-0.09936285018920898,
				-0.09936285018920898,
				-0.09936285018920898
			]
		},
		{
			"mesh":2,
			"name":"Cylinder.001",
			"rotation":[
				0.6987200379371643,
				-0.10858280211687088,
				-0.10858284682035446,
				0.6987201571464539
			],
			"translation":[
				0.4002578854560852,
				0.05446914583444595,
				0.24655026197433472
			]
		},
		{
			"mesh":3,
			"name":"Cylinder.002",
			"rotation":[
				0.6987200975418091,
				-0.10858282446861267,
				-0.10858283936977386,
				0.6987200975418091
			],
			"scale":[
				0.009665220975875854,
				0.009665220975875854,
				0.009665220975875854
			],
			"translation":[
				0.40109017491340637,
				0.057426027953624725,
				0.266775518655777
			]
		},
		{
			"mesh":4,
			"name":"Cube.002",
			"rotation":[
				0,
				0,
				-0.15355932712554932,
				0.9881394505500793
			],
			"scale":[
				0.09645034372806549,
				0.1955554336309433,
				0.267106294631958
			],
			"translation":[
				0.3563755750656128,
				0.012688890099525452,
				0
			]
		},
		{
			"mesh":5,
			"name":"Cube.003",
			"rotation":[
				0,
				0,
				-0.1535593718290329,
				0.9881395101547241
			],
			"scale":[
				0.03472971171140671,
				0.05667393282055855,
				0.12723106145858765
			],
			"translation":[
				0.49802497029304504,
				0.40914005041122437,
				0
			]
		},
		{
			"mesh":6,
			"name":"Circle",
			"rotation":[
				0.70710688829422,
				0,
				0,
				0.7071066498756409
			],
			"scale":[
				0.5033156275749207,
				0.5033156871795654,
				0.5033156871795654
			],
			"translation":[
				0,
				0.5059908628463745,
				0
			]
		},
		{
			"mesh":7,
			"name":"Circle.001",
			"rotation":[
				0.70710688829422,
				0,
				0,
				0.7071066498756409
			],
			"scale":[
				0.5299808979034424,
				0.5033156871795654,
				0.5033156871795654
			],
			"translation":[
				0,
				0.5088671445846558,
				0
			]
		},
		{
			"mesh":8,
			"name":"Cube.004",
			"scale":[
				0.1085653007030487,
				0.004902089014649391,
				0.05153375864028931
			],
			"translation":[
				0,
				1.0074690580368042,
				0
			]
		},
		{
			"mesh":9,
			"name":"Cube.005",
			"rotation":[
				0,
				0,
				-0.1535593420267105,
				0.9881394505500793
			],
			"translation":[
				0.35637563467025757,
				0.012688867747783661,
				0
			]
		},
		{
			"mesh":10,
			"name":"Cube.006",
			"rotation":[
				0,
				0,
				-0.1535593420267105,
				0.9881394505500793
			],
			"scale":[
				1.1990035772323608,
				1.1990035772323608,
				1.1990035772323608
			],
			"translation":[
				-0.2754606008529663,
				0.03738762438297272,
				-0.02357007935643196
			]
		}
	],
	"materials":[
		{
			"doubleSided":true,
			"name":"Material.001",
			"pbrMetallicRoughness":{
				"baseColorFactor":[
					0.03459067642688751,
					0.028676167130470276,
					0.03207855299115181,
					1
				],
				"metallicFactor":0.5853658318519592,
				"roughnessFactor":0.39024391770362854
			}
		},
		{
			"doubleSided":true,
			"name":"Material.007",
			"pbrMetallicRoughness":{
				"baseColorFactor":[
					0,
					0,
					0,
					1
				],
				"metallicFactor":0.8292682766914368,
				"roughnessFactor":0.17073169350624084
			}
		},
		{
			"doubleSided":true,
			"name":"Material.002",
			"pbrMetallicRoughness":{
				"baseColorFactor":[
					0,
					0,
					0,
					1
				],
				"metallicFactor":0.8170731663703918,
				"roughnessFactor":0.7439024448394775
			}
		},
		{
			"doubleSided":true,
			"name":"Material.003",
			"pbrMetallicRoughness":{
				"baseColorFactor":[
					0.21040792763233185,
					0.17331410944461823,
					0.14020265638828278,
					1
				],
				"roughnessFactor":0.3414634168148041
			}
		},
		{
			"doubleSided":true,
			"name":"Material.005",
			"pbrMetallicRoughness":{
				"baseColorFactor":[
					0.24830755591392517,
					0.24830755591392517,
					0.24830755591392517,
					1
				],
				"metallicFactor":0
			}
		},
		{
			"doubleSided":true,
			"name":"Material.006",
			"pbrMetallicRoughness":{
				"baseColorFactor":[
					0,
					0,
					0,
					1
				],
				"metallicFactor":0.7317073345184326,
				"roughnessFactor":0.2804878056049347
			}
		},
		{
			"doubleSided":true,
			"name":"Material.004",
			"pbrMetallicRoughness":{
				"baseColorFactor":[
					0.8000000715255737,
					0.6408582329750061,
					0.6472805738449097,
					1
				],
				"metallicFactor":0,
				"roughnessFactor":0.2682926654815674
			}
		}
	],
	"meshes":[
		{
			"name":"Cube.001",
			"primitives":[
				{
					"attributes":{
						"POSITION":0,
						"NORMAL":1,
						"TEXCOORD_0":2
					},
					"indices":3,
					"material":0
				},
				{
					"attributes":{
						"POSITION":4,
						"NORMAL":5,
						"TEXCOORD_0":6
					},
					"indices":7,
					"material":1
				}
			]
		},
		{
			"name":"Cube.002",
			"primitives":[
				{
					"attributes":{
						"POSITION":8,
						"NORMAL":9,
						"TEXCOORD_0":10
					},
					"indices":11,
					"material":2
				}
			]
		},
		{
			"name":"Cylinder.001",
			"primitives":[
				{
					"attributes":{
						"POSITION":12,
						"NORMAL":13,
						"TEXCOORD_0":14
					},
					"indices":15,
					"material":3
				}
			]
		},
		{
			"name":"Cylinder.003",
			"primitives":[
				{
					"attributes":{
						"POSITION":16,
						"NORMAL":17,
						"TEXCOORD_0":18
					},
					"indices":19,
					"material":0
				}
			]
		},
		{
			"name":"Cube.003",
			"primitives":[
				{
					"attributes":{
						"POSITION":20,
						"NORMAL":21,
						"TEXCOORD_0":22
					},
					"indices":23,
					"material":4
				}
			]
		},
		{
			"name":"Cube.004",
			"primitives":[
				{
					"attributes":{
						"POSITION":24,
						"NORMAL":25,
						"TEXCOORD_0":26
					},
					"indices":27,
					"material":5
				}
			]
		},
		{
			"name":"Circle.003",
			"primitives":[
				{
					"attributes":{
						"POSITION":28,
						"NORMAL":29,
						"TEXCOORD_0":30
					},
					"indices":31,
					"material":0
				}
			]
		},
		{
			"name":"Circle.005",
			"primitives":[
				{
					"attributes":{
						"POSITION":32,
						"NORMAL":33,
						"TEXCOORD_0":34
					},
					"indices":35,
					"material":2
				}
			]
		},
		{
			"name":"Cube.005",
			"primitives":[
				{
					"attributes":{
						"POSITION":36,
						"NORMAL":37,
						"TEXCOORD_0":38
					},
					"indices":39,
					"material":4
				}
			]
		},
		{
			"name":"Cube.006",
			"primitives":[
				{
					"attributes":{
						"POSITION":40,
						"NORMAL":41,
						"TEXCOORD_0":42
					},
					"indices":43,
					"material":6
				}
			]
		},
		{
			"name":"Cube.007",
			"primitives":[
				{
					"attributes":{
						"POSITION":44,
						"NORMAL":45,
						"TEXCOORD_0":46
					},
					"indices":47,
					"material":0
				}
			]
		}
	],
	"accessors":[
		{
			"bufferView":0,
			"componentType":5126,
			"count":11358,
			"max":[
				0.13333989679813385,
				0.1955554187297821,
				0.267106294631958
			],
			"min":[
				-0.8681766390800476,
				-0.42747166752815247,
				-0.267106294631958
			],
			"type":"VEC3"
		},
		{
			"bufferView":1,
			"componentType":5126,
			"count":11358,
			"type":"VEC3"
		},
		{
			"bufferView":2,
			"componentType":5126,
			"count":11358,
			"type":"VEC2"
		},
		{
			"bufferView":3,
			"componentType":5123,
			"count":21204,
			"type":"SCALAR"
		},
		{
			"bufferView":4,
			"componentType":5126,
			"count":112,
			"max":[
				0.13333989679813385,
				0.12668311595916748,
				0.17303462326526642
			],
			"min":[
				-0.8608489036560059,
				-0.2858896255493164,
				0.012120787054300308
			],
			"type":"VEC3"
		},
		{
			"bufferView":5,
			"componentType":5126,
			"count":112,
			"type":"VEC3"
		},
		{
			"bufferView":6,
			"componentType":5126,
			"count":112,
			"type":"VEC2"
		},
		{
			"bufferView":7,
			"componentType":5123,
			"count":240,
			"type":"SCALAR"
		},
		{
			"bufferView":8,
			"componentType":5126,
			"count":2625,
			"max":[
				-1,
				1.131394863128662,
				1.131394863128662
			],
			"min":[
				-1.9172546863555908,
				-1.131394863128662,
				-1.131394863128662
			],
			"type":"VEC3"
		},
		{
			"bufferView":9,
			"componentType":5126,
			"count":2625,
			"type":"VEC3"
		},
		{
			"bufferView":10,
			"componentType":5126,
			"count":2625,
			"type":"VEC2"
		},
		{
			"bufferView":11,
			"componentType":5123,
			"count":14310,
			"type":"SCALAR"
		},
		{
			"bufferView":12,
			"componentType":5126,
			"count":8910,
			"max":[
				0.075027234852314,
				0.04965046048164368,
				0.24635612964630127
			],
			"min":[
				-1.102184772491455,
				-0.5427510738372803,
				-0.48500770330429077
			],
			"type":"VEC3"
		},
		{
			"bufferView":13,
			"componentType":5126,
			"count":8910,
			"type":"VEC3"
		},
		{
			"bufferView":14,
			"componentType":5126,
			"count":8910,
			"type":"VEC2"
		},
		{
			"bufferView":15,
			"componentType":5123,
			"count":51456,
			"type":"SCALAR"
		},
		{
			"bufferView":16,
			"componentType":5126,
			"count":130,
			"max":[
				1,
				1,
				1
			],
			"min":[
				-1,
				-1,
				-1
			],
			"type":"VEC3"
		},
		{
			"bufferView":17,
			"componentType":5126,
			"count":130,
			"type":"VEC3"
		},
		{
			"bufferView":18,
			"componentType":5126,
			"count":130,
			"type":"VEC2"
		},
		{
			"bufferView":19,
			"componentType":5123,
			"count":372,
			"type":"SCALAR"
		},
		{
			"bufferView":20,
			"componentType":5126,
			"count":25,
			"max":[
				-0.48051607608795166,
				0.75,
				0.75
			],
			"min":[
				-0.48051607608795166,
				-0.75,
				-0.75
			],
			"type":"VEC3"
		},
		{
			"bufferView":21,
			"componentType":5126,
			"count":25,
			"type":"VEC3"
		},
		{
			"bufferView":22,
			"componentType":5126,
			"count":25,
			"type":"VEC2"
		},
		{
			"bufferView":23,
			"componentType":5123,
			"count":96,
			"type":"SCALAR"
		},
		{
			"bufferView":24,
			"componentType":5126,
			"count":178,
			"max":[
				1,
				1.095384955406189,
				0.915177583694458
			],
			"min":[
				-1,
				-1,
				-0.915177583694458
			],
			"type":"VEC3"
		},
		{
			"bufferView":25,
			"componentType":5126,
			"count":178,
			"type":"VEC3"
		},
		{
			"bufferView":26,
			"componentType":5126,
			"count":178,
			"type":"VEC2"
		},
		{
			"bufferView":27,
			"componentType":5123,
			"count":852,
			"type":"SCALAR"
		},
		{
			"bufferView":28,
			"componentType":5126,
			"count":342,
			"max":[
				1.078629493713379,
				0.22351603209972382,
				0.1998288631439209
			],
			"min":[
				-1.0736823081970215,
				-0.22351603209972382,
				-1.0597652196884155
			],
			"type":"VEC3"
		},
		{
			"bufferView":29,
			"componentType":5126,
			"count":342,
			"type":"VEC3"
		},
		{
			"bufferView":30,
			"componentType":5126,
			"count":342,
			"type":"VEC2"
		},
		{
			"bufferView":31,
			"componentType":5123,
			"count":2040,
			"type":"SCALAR"
		},
		{
			"bufferView":32,
			"componentType":5126,
			"count":1410,
			"max":[
				0.6753568053245544,
				0.13964352011680603,
				-0.6668485403060913
			],
			"min":[
				-0.6753568649291992,
				-0.13964350521564484,
				-0.9727185964584351
			],
			"type":"VEC3"
		},
		{
			"bufferView":33,
			"componentType":5126,
			"count":1410,
			"type":"VEC3"
		},
		{
			"bufferView":34,
			"componentType":5126,
			"count":1410,
			"type":"VEC2"
		},
		{
			"bufferView":35,
			"componentType":5123,
			"count":7872,
			"type":"SCALAR"
		},
		{
			"bufferView":36,
			"componentType":5126,
			"count":441,
			"max":[
				1,
				4.950263500213623,
				1
			],
			"min":[
				-1,
				0.367201566696167,
				-1
			],
			"type":"VEC3"
		},
		{
			"bufferView":37,
			"componentType":5126,
			"count":441,
			"type":"VEC3"
		},
		{
			"bufferView":38,
			"componentType":5126,
			"count":441,
			"type":"VEC2"
		},
		{
			"bufferView":39,
			"componentType":5123,
			"count":2304,
			"type":"SCALAR"
		},
		{
			"bufferView":40,
			"componentType":5126,
			"count":40,
			"max":[
				0.12541760504245758,
				-0.09037137776613235,
				0.12343694269657135
			],
			"min":[
				0.12197931855916977,
				-0.13555705547332764,
				-0.12343694269657135
			],
			"type":"VEC3"
		},
		{
			"bufferView":41,
			"componentType":5126,
			"count":40,
			"type":"VEC3"
		},
		{
			"bufferView":42,
			"componentType":5126,
			"count":40,
			"type":"VEC2"
		},
		{
			"bufferView":43,
			"componentType":5123,
			"count":84,
			"type":"SCALAR"
		},
		{
			"bufferView":44,
			"componentType":5126,
			"count":12007,
			"max":[
				0.47411632537841797,
				0.3103972375392914,
				0.2570539712905884
			],
			"min":[
				-0.1281862109899521,
				-0.16011737287044525,
				-0.20995670557022095
			],
			"type":"VEC3"
		},
		{
			"bufferView":45,
			"componentType":5126,
			"count":12007,
			"type":"VEC3"
		},
		{
			"bufferView":46,
			"componentType":5126,
			"count":12007,
			"type":"VEC2"
		},
		{
			"bufferView":47,
			"componentType":5123,
			"count":27456,
			"type":"SCALAR"
		}
	],
	"bufferViews":[
		{
			"buffer":0,
			"byteLength":136296,
			"byteOffset":0,
			"target":34962
		},
		{
			"buffer":0,
			"byteLength":136296,
			"byteOffset":136296,
			"target":34962
		},
		{
			"buffer":0,
			"byteLength":90864,
			"byteOffset":272592,
			"target":34962
		},
		{
			"buffer":0,
			"byteLength":42408,
			"byteOffset":363456,
			"target":34963
		},
		{
			"buffer":0,
			"byteLength":1344,
			"byteOffset":405864,
			"target":34962
		},
		{
			"buffer":0,
			"byteLength":1344,
			"byteOffset":407208,
			"target":34962
		},
		{
			"buffer":0,
			"byteLength":896,
			"byteOffset":408552,
			"target":34962
		},
		{
			"buffer":0,
			"byteLength":480,
			"byteOffset":409448,
			"target":34963
		},
		{
			"buffer":0,
			"byteLength":31500,
			"byteOffset":409928,
			"target":34962
		},
		{
			"buffer":0,
			"byteLength":31500,
			"byteOffset":441428,
			"target":34962
		},
		{
			"buffer":0,
			"byteLength":21000,
			"byteOffset":472928,
			"target":34962
		},
		{
			"buffer":0,
			"byteLength":28620,
			"byteOffset":493928,
			"target":34963
		},
		{
			"buffer":0,
			"byteLength":106920,
			"byteOffset":522548,
			"target":34962
		},
		{
			"buffer":0,
			"byteLength":106920,
			"byteOffset":629468,
			"target":34962
		},
		{
			"buffer":0,
			"byteLength":71280,
			"byteOffset":736388,
			"target":34962
		},
		{
			"buffer":0,
			"byteLength":102912,
			"byteOffset":807668,
			"target":34963
		},
		{
			"buffer":0,
			"byteLength":1560,
			"byteOffset":910580,
			"target":34962
		},
		{
			"buffer":0,
			"byteLength":1560,
			"byteOffset":912140,
			"target":34962
		},
		{
			"buffer":0,
			"byteLength":1040,
			"byteOffset":913700,
			"target":34962
		},
		{
			"buffer":0,
			"byteLength":744,
			"byteOffset":914740,
			"target":34963
		},
		{
			"buffer":0,
			"byteLength":300,
			"byteOffset":915484,
			"target":34962
		},
		{
			"buffer":0,
			"byteLength":300,
			"byteOffset":915784,
			"target":34962
		},
		{
			"buffer":0,
			"byteLength":200,
			"byteOffset":916084,
			"target":34962
		},
		{
			"buffer":0,
			"byteLength":192,
			"byteOffset":916284,
			"target":34963
		},
		{
			"buffer":0,
			"byteLength":2136,
			"byteOffset":916476,
			"target":34962
		},
		{
			"buffer":0,
			"byteLength":2136,
			"byteOffset":918612,
			"target":34962
		},
		{
			"buffer":0,
			"byteLength":1424,
			"byteOffset":920748,
			"target":34962
		},
		{
			"buffer":0,
			"byteLength":1704,
			"byteOffset":922172,
			"target":34963
		},
		{
			"buffer":0,
			"byteLength":4104,
			"byteOffset":923876,
			"target":34962
		},
		{
			"buffer":0,
			"byteLength":4104,
			"byteOffset":927980,
			"target":34962
		},
		{
			"buffer":0,
			"byteLength":2736,
			"byteOffset":932084,
			"target":34962
		},
		{
			"buffer":0,
			"byteLength":4080,
			"byteOffset":934820,
			"target":34963
		},
		{
			"buffer":0,
			"byteLength":16920,
			"byteOffset":938900,
			"target":34962
		},
		{
			"buffer":0,
			"byteLength":16920,
			"byteOffset":955820,
			"target":34962
		},
		{
			"buffer":0,
			"byteLength":11280,
			"byteOffset":972740,
			"target":34962
		},
		{
			"buffer":0,
			"byteLength":15744,
			"byteOffset":984020,
			"target":34963
		},
		{
			"buffer":0,
			"byteLength":5292,
			"byteOffset":999764,
			"target":34962
		},
		{
			"buffer":0,
			"byteLength":5292,
			"byteOffset":1005056,
			"target":34962
		},
		{
			"buffer":0,
			"byteLength":3528,
			"byteOffset":1010348,
			"target":34962
		},
		{
			"buffer":0,
			"byteLength":4608,
			"byteOffset":1013876,
			"target":34963
		},
		{
			"buffer":0,
			"byteLength":480,
			"byteOffset":1018484,
			"target":34962
		},
		{
			"buffer":0,
			"byteLength":480,
			"byteOffset":1018964,
			"target":34962
		},
		{
			"buffer":0,
			"byteLength":320,
			"byteOffset":1019444,
			"target":34962
		},
		{
			"buffer":0,
			"byteLength":168,
			"byteOffset":1019764,
			"target":34963
		},
		{
			"buffer":0,
			"byteLength":144084,
			"byteOffset":1019932,
			"target":34962
		},
		{
			"buffer":0,
			"byteLength":144084,
			"byteOffset":1164016,
			"target":34962
		},
		{
			"buffer":0,
			"byteLength":96056,
			"byteOffset":1308100,
			"target":34962
		},
		{
			"buffer":0,
			"byteLength":54912,
			"byteOffset":1404156,
			"target":34963
		}
	],
	"buffers":[
		{
			"byteLength":1459068,
			"uri":"headphone.bin"
		}
	]
}
