{
	"asset":{
		"generator":"Khronos glTF Blender I/O v4.1.62",
		"version":"2.0"
	},
	"scene":0,
	"scenes":[
		{
			"name":"Scene",
			"nodes":[
				0,
				1,
				2,
				3,
				4,
				5,
				6,
				7,
				8,
				9,
				10,
				11,
				12,
				13,
				14,
				15,
				16
			]
		}
	],
	"nodes":[
		{
			"mesh":0,
			"name":"Cube",
			"rotation":[
				0,
				0,
				-0.15355932712554932,
				0.9881394505500793
			],
			"translation":[
				0.35637563467025757,
				0.012688867747783661,
				0
			]
		},
		{
			"mesh":1,
			"name":"Cube.001",
			"rotation":[
				0,
				0,
				-0.15355932712554932,
				0.9881394505500793
			],
			"scale":[
				0.15026690065860748,
				0.1955554187297821,
				0.2671062648296356
			],
			"translation":[
				0.4613074064254761,
				-0.020731553435325623,
				0
			]
		},
		{
			"name":"Empty",
			"scale":[
				-0.09936285018920898,
				-0.09936285018920898,
				-0.09936285018920898
			]
		},
		{
			"mesh":2,
			"name":"Cylinder.001",
			"rotation":[
				0.6987200379371643,
				-0.10858280956745148,
				-0.10858284682035446,
				0.6987201571464539
			],
			"translation":[
				0.4002578854560852,
				0.05446914583444595,
				0.24655026197433472
			]
		},
		{
			"mesh":3,
			"name":"Circle.002",
			"rotation":[
				0.7071068286895752,
				0,
				0,
				0.7071068286895752
			],
			"scale":[
				0.006016240455210209,
				0.006016240455210209,
				0.006016240455210209
			],
			"translation":[
				0.4989197850227356,
				0.056053370237350464,
				0.2760829031467438
			]
		},
		{
			"mesh":4,
			"name":"Cylinder",
			"rotation":[
				0.6987200975418091,
				-0.10858282446861267,
				-0.10858283936977386,
				0.6987200975418091
			],
			"scale":[
				0.01643621362745762,
				0.01643621362745762,
				0.01643621362745762
			],
			"translation":[
				0.40109017491340637,
				0.057426027953624725,
				0.2558017671108246
			]
		},
		{
			"mesh":5,
			"name":"Cylinder.002",
			"rotation":[
				0.6987200975418091,
				-0.10858282446861267,
				-0.10858283936977386,
				0.6987200975418091
			],
			"scale":[
				0.009665220975875854,
				0.009665220975875854,
				0.009665220975875854
			],
			"translation":[
				0.40109017491340637,
				0.057426027953624725,
				0.266775518655777
			]
		},
		{
			"mesh":6,
			"name":"Cube.002",
			"rotation":[
				0,
				0,
				-0.15355932712554932,
				0.9881394505500793
			],
			"scale":[
				0.09645034372806549,
				0.1955554336309433,
				0.267106294631958
			],
			"translation":[
				0.3563755750656128,
				0.012688890099525452,
				0
			]
		},
		{
			"mesh":7,
			"name":"Cube.003",
			"rotation":[
				0,
				0,
				-0.1535593420267105,
				0.9881395101547241
			],
			"scale":[
				0.03472970798611641,
				0.05667393282055855,
				0.12723106145858765
			],
			"translation":[
				0.49802497029304504,
				0.40914005041122437,
				0
			]
		},
		{
			"name":"NurbsPath",
			"rotation":[
				0,
				0,
				-0.8073029518127441,
				0.590137243270874
			],
			"scale":[
				0.7156959176063538,
				0.7156959176063538,
				0.715695858001709
			],
			"translation":[
				0.4507153332233429,
				0.353368878364563,
				0
			]
		},
		{
			"name":"BezierCircle",
			"rotation":[
				0.7071068286895752,
				0,
				0,
				0.7071068286895752
			],
			"scale":[
				0.041532889008522034,
				0.041532889008522034,
				0.041532889008522034
			],
			"translation":[
				1.6196873188018799,
				0.25774404406547546,
				0
			]
		},
		{
			"mesh":8,
			"name":"Cylinder.004",
			"rotation":[
				-0.9881395101547241,
				0.1535593420267105,
				0,
				2.754981380803656e-07
			],
			"scale":[
				0.01258168276399374,
				0.010462785139679909,
				0.01258168276399374
			],
			"translation":[
				0.3897782266139984,
				0.21255208551883698,
				0
			]
		},
		{
			"mesh":9,
			"name":"Circle",
			"rotation":[
				0.7071068286895752,
				0,
				0,
				0.7071068286895752
			],
			"scale":[
				0.5033156275749207,
				0.5033156275749207,
				0.5033156275749207
			],
			"translation":[
				0,
				0.5059908628463745,
				0
			]
		},
		{
			"mesh":10,
			"name":"Circle.001",
			"rotation":[
				0.7071068286895752,
				0,
				0,
				0.7071068286895752
			],
			"scale":[
				0.5299808979034424,
				0.5033156275749207,
				0.5033156275749207
			],
			"translation":[
				0,
				0.5088671445846558,
				0
			]
		},
		{
			"mesh":11,
			"name":"Cube.004",
			"scale":[
				0.1085653007030487,
				0.004902089014649391,
				0.05153375864028931
			],
			"translation":[
				0,
				1.0074690580368042,
				0
			]
		},
		{
			"mesh":12,
			"name":"Cube.005",
			"rotation":[
				0,
				0,
				-0.15355932712554932,
				0.9881394505500793
			],
			"translation":[
				0.35637563467025757,
				0.012688867747783661,
				0
			]
		},
		{
			"name":"NurbsPath.001",
			"rotation":[
				0,
				0,
				-0.8073029518127441,
				0.590137243270874
			],
			"scale":[
				0.7156959176063538,
				0.7156959176063538,
				0.715695858001709
			],
			"translation":[
				0.28230878710746765,
				-0.1787794828414917,
				-0.02142157219350338
			]
		}
	],
	"materials":[
		{
			"doubleSided":true,
			"name":"Material.001",
			"pbrMetallicRoughness":{
				"baseColorFactor":[
					0.03459067642688751,
					0.028676167130470276,
					0.03207855299115181,
					1
				],
				"metallicFactor":0.5853658318519592,
				"roughnessFactor":0.39024391770362854
			}
		},
		{
			"doubleSided":true,
			"name":"Material.007",
			"pbrMetallicRoughness":{
				"baseColorFactor":[
					0,
					0,
					0,
					1
				],
				"metallicFactor":0.8292682766914368,
				"roughnessFactor":0.17073169350624084
			}
		},
		{
			"doubleSided":true,
			"name":"Material.002",
			"pbrMetallicRoughness":{
				"baseColorFactor":[
					0,
					0,
					0,
					1
				],
				"metallicFactor":0.8170731663703918,
				"roughnessFactor":0.7439024448394775
			}
		},
		{
			"doubleSided":true,
			"name":"Material.003",
			"pbrMetallicRoughness":{
				"baseColorFactor":[
					0.21040792763233185,
					0.17331410944461823,
					0.14020265638828278,
					1
				],
				"roughnessFactor":0.3414634168148041
			}
		},
		{
			"doubleSided":true,
			"name":"Material",
			"pbrMetallicRoughness":{
				"baseColorFactor":[
					0.8000000715255737,
					0.6408582329750061,
					0.6472805738449097,
					1
				],
				"metallicFactor":0,
				"roughnessFactor":0.2682926654815674
			}
		},
		{
			"doubleSided":true,
			"name":"Material.004",
			"pbrMetallicRoughness":{
				"baseColorFactor":[
					0.24830755591392517,
					0.24830755591392517,
					0.24830755591392517,
					1
				],
				"metallicFactor":0
			}
		},
		{
			"doubleSided":true,
			"name":"Material.005",
			"pbrMetallicRoughness":{
				"baseColorFactor":[
					0,
					0,
					0,
					1
				],
				"metallicFactor":0.7317073345184326,
				"roughnessFactor":0.2804878056049347
			}
		}
	],
	"meshes":[
		{
			"name":"Cube.001",
			"primitives":[
				{
					"attributes":{
						"POSITION":0,
						"NORMAL":1,
						"TEXCOORD_0":2
					},
					"indices":3,
					"material":0
				},
				{
					"attributes":{
						"POSITION":4,
						"NORMAL":5,
						"TEXCOORD_0":6
					},
					"indices":7,
					"material":1
				}
			]
		},
		{
			"name":"Cube.002",
			"primitives":[
				{
					"attributes":{
						"POSITION":8,
						"NORMAL":9,
						"TEXCOORD_0":10
					},
					"indices":11,
					"material":2
				}
			]
		},
		{
			"name":"Cylinder.001",
			"primitives":[
				{
					"attributes":{
						"POSITION":12,
						"NORMAL":13,
						"TEXCOORD_0":14
					},
					"indices":15,
					"material":3
				}
			]
		},
		{
			"name":"Circle.002",
			"primitives":[
				{
					"attributes":{
						"POSITION":16,
						"NORMAL":17,
						"TEXCOORD_0":18
					},
					"indices":19
				}
			]
		},
		{
			"name":"Cylinder.002",
			"primitives":[
				{
					"attributes":{
						"POSITION":20,
						"NORMAL":21,
						"TEXCOORD_0":22
					},
					"indices":23,
					"material":4
				}
			]
		},
		{
			"name":"Cylinder.003",
			"primitives":[
				{
					"attributes":{
						"POSITION":24,
						"NORMAL":25,
						"TEXCOORD_0":26
					},
					"indices":23,
					"material":0
				}
			]
		},
		{
			"name":"Cube.003",
			"primitives":[
				{
					"attributes":{
						"POSITION":27,
						"NORMAL":28,
						"TEXCOORD_0":29
					},
					"indices":30,
					"material":5
				}
			]
		},
		{
			"name":"Cube.004",
			"primitives":[
				{
					"attributes":{
						"POSITION":31,
						"NORMAL":32,
						"TEXCOORD_0":33
					},
					"indices":34,
					"material":6
				}
			]
		},
		{
			"name":"Cylinder.005",
			"primitives":[
				{
					"attributes":{
						"POSITION":35,
						"NORMAL":36,
						"TEXCOORD_0":37
					},
					"indices":38,
					"material":4
				}
			]
		},
		{
			"name":"Circle.003",
			"primitives":[
				{
					"attributes":{
						"POSITION":39,
						"NORMAL":40,
						"TEXCOORD_0":41
					},
					"indices":42,
					"material":0
				}
			]
		},
		{
			"name":"Circle.005",
			"primitives":[
				{
					"attributes":{
						"POSITION":43,
						"NORMAL":44,
						"TEXCOORD_0":45
					},
					"indices":46,
					"material":2
				}
			]
		},
		{
			"name":"Cube",
			"primitives":[
				{
					"attributes":{
						"POSITION":47,
						"NORMAL":48,
						"TEXCOORD_0":49
					},
					"indices":50,
					"material":5
				}
			]
		},
		{
			"name":"Cube.005",
			"primitives":[
				{
					"attributes":{
						"POSITION":51,
						"NORMAL":52,
						"TEXCOORD_0":53
					},
					"indices":54,
					"material":4
				}
			]
		}
	],
	"accessors":[
		{
			"bufferView":0,
			"componentType":5126,
			"count":296888,
			"max":[
				0.13333992660045624,
				0.19555546343326569,
				0.2671063542366028
			],
			"min":[
				-0.8681447505950928,
				-0.4273979663848877,
				-0.2671063542366028
			],
			"type":"VEC3"
		},
		{
			"bufferView":1,
			"componentType":5126,
			"count":296888,
			"type":"VEC3"
		},
		{
			"bufferView":2,
			"componentType":5126,
			"count":296888,
			"type":"VEC2"
		},
		{
			"bufferView":3,
			"componentType":5125,
			"count":521184,
			"type":"SCALAR"
		},
		{
			"bufferView":4,
			"componentType":5126,
			"count":2164,
			"max":[
				0.1332874745130539,
				0.12651219964027405,
				0.1728011518716812
			],
			"min":[
				-0.8607293367385864,
				-0.28577789664268494,
				0.012354226782917976
			],
			"type":"VEC3"
		},
		{
			"bufferView":5,
			"componentType":5126,
			"count":2164,
			"type":"VEC3"
		},
		{
			"bufferView":6,
			"componentType":5126,
			"count":2164,
			"type":"VEC2"
		},
		{
			"bufferView":7,
			"componentType":5123,
			"count":3840,
			"type":"SCALAR"
		},
		{
			"bufferView":8,
			"componentType":5126,
			"count":168000,
			"max":[
				-0.9726439714431763,
				1.1826472282409668,
				1.1633037328720093
			],
			"min":[
				-5.7927350997924805,
				-1.833012342453003,
				-1.1562490463256836
			],
			"type":"VEC3"
		},
		{
			"bufferView":9,
			"componentType":5126,
			"count":168000,
			"type":"VEC3"
		},
		{
			"bufferView":10,
			"componentType":5126,
			"count":168000,
			"type":"VEC2"
		},
		{
			"bufferView":11,
			"componentType":5125,
			"count":1008000,
			"type":"SCALAR"
		},
		{
			"bufferView":12,
			"componentType":5126,
			"count":8910,
			"max":[
				0.0750272274017334,
				0.04965046048164368,
				0.2463560700416565
			],
			"min":[
				-1.1021846532821655,
				-0.5427509546279907,
				-0.48500770330429077
			],
			"type":"VEC3"
		},
		{
			"bufferView":13,
			"componentType":5126,
			"count":8910,
			"type":"VEC3"
		},
		{
			"bufferView":14,
			"componentType":5126,
			"count":8910,
			"type":"VEC2"
		},
		{
			"bufferView":15,
			"componentType":5123,
			"count":51456,
			"type":"SCALAR"
		},
		{
			"bufferView":16,
			"componentType":5126,
			"count":209,
			"max":[
				1,
				0,
				1
			],
			"min":[
				-1,
				-0.9305737018585205,
				-1
			],
			"type":"VEC3"
		},
		{
			"bufferView":17,
			"componentType":5126,
			"count":209,
			"type":"VEC3"
		},
		{
			"bufferView":18,
			"componentType":5126,
			"count":209,
			"type":"VEC2"
		},
		{
			"bufferView":19,
			"componentType":5123,
			"count":576,
			"type":"SCALAR"
		},
		{
			"bufferView":20,
			"componentType":5126,
			"count":130,
			"max":[
				1,
				1,
				1
			],
			"min":[
				-1,
				-1,
				-1
			],
			"type":"VEC3"
		},
		{
			"bufferView":21,
			"componentType":5126,
			"count":130,
			"type":"VEC3"
		},
		{
			"bufferView":22,
			"componentType":5126,
			"count":130,
			"type":"VEC2"
		},
		{
			"bufferView":23,
			"componentType":5123,
			"count":372,
			"type":"SCALAR"
		},
		{
			"bufferView":24,
			"componentType":5126,
			"count":130,
			"max":[
				1,
				1,
				1
			],
			"min":[
				-1,
				-1,
				-1
			],
			"type":"VEC3"
		},
		{
			"bufferView":25,
			"componentType":5126,
			"count":130,
			"type":"VEC3"
		},
		{
			"bufferView":26,
			"componentType":5126,
			"count":130,
			"type":"VEC2"
		},
		{
			"bufferView":27,
			"componentType":5126,
			"count":25,
			"max":[
				-0.48051607608795166,
				0.75,
				0.75
			],
			"min":[
				-0.48051607608795166,
				-0.75,
				-0.75
			],
			"type":"VEC3"
		},
		{
			"bufferView":28,
			"componentType":5126,
			"count":25,
			"type":"VEC3"
		},
		{
			"bufferView":29,
			"componentType":5126,
			"count":25,
			"type":"VEC2"
		},
		{
			"bufferView":30,
			"componentType":5123,
			"count":96,
			"type":"SCALAR"
		},
		{
			"bufferView":31,
			"componentType":5126,
			"count":2716,
			"max":[
				1,
				1.095384955406189,
				0.915177583694458
			],
			"min":[
				-29.08059310913086,
				-6.500273704528809,
				-0.9151778817176819
			],
			"type":"VEC3"
		},
		{
			"bufferView":32,
			"componentType":5126,
			"count":2716,
			"type":"VEC3"
		},
		{
			"bufferView":33,
			"componentType":5126,
			"count":2716,
			"type":"VEC2"
		},
		{
			"bufferView":34,
			"componentType":5123,
			"count":14472,
			"type":"SCALAR"
		},
		{
			"bufferView":35,
			"componentType":5126,
			"count":588,
			"max":[
				4.5752458572387695,
				3.0446674823760986,
				1.5871180295944214
			],
			"min":[
				-0.4483499526977539,
				-16.576841354370117,
				-1.5871185064315796
			],
			"type":"VEC3"
		},
		{
			"bufferView":36,
			"componentType":5126,
			"count":588,
			"type":"VEC3"
		},
		{
			"bufferView":37,
			"componentType":5126,
			"count":588,
			"type":"VEC2"
		},
		{
			"bufferView":38,
			"componentType":5123,
			"count":2268,
			"type":"SCALAR"
		},
		{
			"bufferView":39,
			"componentType":5126,
			"count":21762,
			"max":[
				1.0613259077072144,
				0.2234494686126709,
				0.18840423226356506
			],
			"min":[
				-1.0579664707183838,
				-0.2234494686126709,
				-1.052160382270813
			],
			"type":"VEC3"
		},
		{
			"bufferView":40,
			"componentType":5126,
			"count":21762,
			"type":"VEC3"
		},
		{
			"bufferView":41,
			"componentType":5126,
			"count":21762,
			"type":"VEC2"
		},
		{
			"bufferView":42,
			"componentType":5123,
			"count":130560,
			"type":"SCALAR"
		},
		{
			"bufferView":43,
			"componentType":5126,
			"count":1410,
			"max":[
				0.6753568053245544,
				0.13964352011680603,
				-0.6668485403060913
			],
			"min":[
				-0.6753568649291992,
				-0.13964350521564484,
				-0.9727185964584351
			],
			"type":"VEC3"
		},
		{
			"bufferView":44,
			"componentType":5126,
			"count":1410,
			"type":"VEC3"
		},
		{
			"bufferView":45,
			"componentType":5126,
			"count":1410,
			"type":"VEC2"
		},
		{
			"bufferView":46,
			"componentType":5123,
			"count":7872,
			"type":"SCALAR"
		},
		{
			"bufferView":47,
			"componentType":5126,
			"count":441,
			"max":[
				1,
				4.950263500213623,
				1
			],
			"min":[
				-1,
				0.367201566696167,
				-1
			],
			"type":"VEC3"
		},
		{
			"bufferView":48,
			"componentType":5126,
			"count":441,
			"type":"VEC3"
		},
		{
			"bufferView":49,
			"componentType":5126,
			"count":441,
			"type":"VEC2"
		},
		{
			"bufferView":50,
			"componentType":5123,
			"count":2304,
			"type":"SCALAR"
		},
		{
			"bufferView":51,
			"componentType":5126,
			"count":40,
			"max":[
				0.12541760504245758,
				-0.09037137776613235,
				0.12343694269657135
			],
			"min":[
				0.12197931855916977,
				-0.13555705547332764,
				-0.12343694269657135
			],
			"type":"VEC3"
		},
		{
			"bufferView":52,
			"componentType":5126,
			"count":40,
			"type":"VEC3"
		},
		{
			"bufferView":53,
			"componentType":5126,
			"count":40,
			"type":"VEC2"
		},
		{
			"bufferView":54,
			"componentType":5123,
			"count":84,
			"type":"SCALAR"
		}
	],
	"bufferViews":[
		{
			"buffer":0,
			"byteLength":3562656,
			"byteOffset":0,
			"target":34962
		},
		{
			"buffer":0,
			"byteLength":3562656,
			"byteOffset":3562656,
			"target":34962
		},
		{
			"buffer":0,
			"byteLength":2375104,
			"byteOffset":7125312,
			"target":34962
		},
		{
			"buffer":0,
			"byteLength":2084736,
			"byteOffset":9500416,
			"target":34963
		},
		{
			"buffer":0,
			"byteLength":25968,
			"byteOffset":11585152,
			"target":34962
		},
		{
			"buffer":0,
			"byteLength":25968,
			"byteOffset":11611120,
			"target":34962
		},
		{
			"buffer":0,
			"byteLength":17312,
			"byteOffset":11637088,
			"target":34962
		},
		{
			"buffer":0,
			"byteLength":7680,
			"byteOffset":11654400,
			"target":34963
		},
		{
			"buffer":0,
			"byteLength":2016000,
			"byteOffset":11662080,
			"target":34962
		},
		{
			"buffer":0,
			"byteLength":2016000,
			"byteOffset":13678080,
			"target":34962
		},
		{
			"buffer":0,
			"byteLength":1344000,
			"byteOffset":15694080,
			"target":34962
		},
		{
			"buffer":0,
			"byteLength":4032000,
			"byteOffset":17038080,
			"target":34963
		},
		{
			"buffer":0,
			"byteLength":106920,
			"byteOffset":21070080,
			"target":34962
		},
		{
			"buffer":0,
			"byteLength":106920,
			"byteOffset":21177000,
			"target":34962
		},
		{
			"buffer":0,
			"byteLength":71280,
			"byteOffset":21283920,
			"target":34962
		},
		{
			"buffer":0,
			"byteLength":102912,
			"byteOffset":21355200,
			"target":34963
		},
		{
			"buffer":0,
			"byteLength":2508,
			"byteOffset":21458112,
			"target":34962
		},
		{
			"buffer":0,
			"byteLength":2508,
			"byteOffset":21460620,
			"target":34962
		},
		{
			"buffer":0,
			"byteLength":1672,
			"byteOffset":21463128,
			"target":34962
		},
		{
			"buffer":0,
			"byteLength":1152,
			"byteOffset":21464800,
			"target":34963
		},
		{
			"buffer":0,
			"byteLength":1560,
			"byteOffset":21465952,
			"target":34962
		},
		{
			"buffer":0,
			"byteLength":1560,
			"byteOffset":21467512,
			"target":34962
		},
		{
			"buffer":0,
			"byteLength":1040,
			"byteOffset":21469072,
			"target":34962
		},
		{
			"buffer":0,
			"byteLength":744,
			"byteOffset":21470112,
			"target":34963
		},
		{
			"buffer":0,
			"byteLength":1560,
			"byteOffset":21470856,
			"target":34962
		},
		{
			"buffer":0,
			"byteLength":1560,
			"byteOffset":21472416,
			"target":34962
		},
		{
			"buffer":0,
			"byteLength":1040,
			"byteOffset":21473976,
			"target":34962
		},
		{
			"buffer":0,
			"byteLength":300,
			"byteOffset":21475016,
			"target":34962
		},
		{
			"buffer":0,
			"byteLength":300,
			"byteOffset":21475316,
			"target":34962
		},
		{
			"buffer":0,
			"byteLength":200,
			"byteOffset":21475616,
			"target":34962
		},
		{
			"buffer":0,
			"byteLength":192,
			"byteOffset":21475816,
			"target":34963
		},
		{
			"buffer":0,
			"byteLength":32592,
			"byteOffset":21476008,
			"target":34962
		},
		{
			"buffer":0,
			"byteLength":32592,
			"byteOffset":21508600,
			"target":34962
		},
		{
			"buffer":0,
			"byteLength":21728,
			"byteOffset":21541192,
			"target":34962
		},
		{
			"buffer":0,
			"byteLength":28944,
			"byteOffset":21562920,
			"target":34963
		},
		{
			"buffer":0,
			"byteLength":7056,
			"byteOffset":21591864,
			"target":34962
		},
		{
			"buffer":0,
			"byteLength":7056,
			"byteOffset":21598920,
			"target":34962
		},
		{
			"buffer":0,
			"byteLength":4704,
			"byteOffset":21605976,
			"target":34962
		},
		{
			"buffer":0,
			"byteLength":4536,
			"byteOffset":21610680,
			"target":34963
		},
		{
			"buffer":0,
			"byteLength":261144,
			"byteOffset":21615216,
			"target":34962
		},
		{
			"buffer":0,
			"byteLength":261144,
			"byteOffset":21876360,
			"target":34962
		},
		{
			"buffer":0,
			"byteLength":174096,
			"byteOffset":22137504,
			"target":34962
		},
		{
			"buffer":0,
			"byteLength":261120,
			"byteOffset":22311600,
			"target":34963
		},
		{
			"buffer":0,
			"byteLength":16920,
			"byteOffset":22572720,
			"target":34962
		},
		{
			"buffer":0,
			"byteLength":16920,
			"byteOffset":22589640,
			"target":34962
		},
		{
			"buffer":0,
			"byteLength":11280,
			"byteOffset":22606560,
			"target":34962
		},
		{
			"buffer":0,
			"byteLength":15744,
			"byteOffset":22617840,
			"target":34963
		},
		{
			"buffer":0,
			"byteLength":5292,
			"byteOffset":22633584,
			"target":34962
		},
		{
			"buffer":0,
			"byteLength":5292,
			"byteOffset":22638876,
			"target":34962
		},
		{
			"buffer":0,
			"byteLength":3528,
			"byteOffset":22644168,
			"target":34962
		},
		{
			"buffer":0,
			"byteLength":4608,
			"byteOffset":22647696,
			"target":34963
		},
		{
			"buffer":0,
			"byteLength":480,
			"byteOffset":22652304,
			"target":34962
		},
		{
			"buffer":0,
			"byteLength":480,
			"byteOffset":22652784,
			"target":34962
		},
		{
			"buffer":0,
			"byteLength":320,
			"byteOffset":22653264,
			"target":34962
		},
		{
			"buffer":0,
			"byteLength":168,
			"byteOffset":22653584,
			"target":34963
		}
	],
	"buffers":[
		{
			"byteLength":22653752,
			"uri":"headphon.bin"
		}
	]
}
