<?xml version="1.0" encoding="UTF-8"?>
<svg id="Layer_1" data-name="Layer 1" xmlns="http://www.w3.org/2000/svg" viewBox="0 0 500 500">
  <defs>
    <style>
      .cls-1 {
        fill: #000;
      }

      .cls-1, .cls-2 {
        stroke-width: 0px;
      }

      .cls-2 {
        fill: #fff;
      }
    </style>
  </defs>
  <path class="cls-1" d="M0,268.84c0-12.5,0-25.01,0-37.51.47-2.26,1.15-4.5,1.37-6.78C11.39,123.27,83.43,37.05,181.64,9.71,197.81,5.21,214.66,3.17,231.19,0,243.69,0,256.19,0,268.68,0c2,.45,3.99,1.12,6.01,1.32,139.17,13.38,240.94,140.78,223.32,279.62-17.04,134.27-136.24,230.17-270.99,218.03-102.62-9.25-189.71-81.3-217.32-180.51C5.21,302.27,3.17,285.39,0,268.84ZM249.97,143.65v.11c-48.14,0-96.28-.01-144.42,0-13.89,0-18.39,4.39-18.39,18.05-.03,58.84-.03,117.68,0,176.52,0,13.66,4.5,18.04,18.4,18.04,96.28.01,192.55.02,288.83,0,13.85,0,18.32-4.4,18.33-18.12.03-58.84.03-117.68,0-176.52,0-13.67-4.55-18.1-18.33-18.1-48.14,0-96.28,0-144.42,0Z"/>
  <path class="cls-2" d="M249.97,143.65c48.14,0,96.28,0,144.42,0,13.78,0,18.32,4.43,18.33,18.1.03,58.84.03,117.68,0,176.52,0,13.72-4.48,18.11-18.33,18.12-96.28.02-192.55.02-288.83,0-13.89,0-18.39-4.38-18.4-18.04-.03-58.84-.03-117.68,0-176.52,0-13.67,4.5-18.05,18.39-18.05,48.14-.02,96.28,0,144.42,0v-.11ZM389.61,347.95c-3-2.41-3.96-3.24-4.98-3.99-31.27-22.92-62.53-45.85-93.82-68.73-5.87-4.29-11.92-11.81-17.78-11.71-6.18.11-12.4,7.34-18.27,11.89-5.17,4-9.75,4.01-14.73-.13-5.35-4.45-10.91-8.65-16.55-13.1-36.46,26.99-72.42,53.61-108.38,80.23.33.69.66,1.39,1,2.08,90.38,1.15,180.76,2.29,273.51,3.47ZM376.35,160.92H121.35c43.33,34.42,84.65,67.23,126.1,100.15,43.1-33.49,85.73-66.61,128.9-100.15ZM285.18,251.69c37.62,27.36,74.07,53.86,111.22,80.87v-167.28c-37.45,29.1-73.88,57.4-111.22,86.42ZM103.19,331.58c36.43-26.94,71.62-52.96,107.59-79.56-36.01-28.59-71.26-56.57-107.59-85.41v164.96Z"/>
  <path class="cls-1" d="M389.61,347.95c-92.75-1.18-183.13-2.32-273.51-3.47-.33-.69-.66-1.39-1-2.08,35.96-26.62,71.92-53.24,108.38-80.23,5.64,4.45,11.2,8.65,16.55,13.1,4.98,4.14,9.57,4.12,14.73.13,5.87-4.55,12.09-11.78,18.27-11.89,5.86-.1,11.91,7.41,17.78,11.71,31.29,22.89,62.55,45.81,93.82,68.73,1.02.75,1.98,1.58,4.98,3.99Z"/>
  <path class="cls-1" d="M376.35,160.92c-43.17,33.54-85.79,66.66-128.9,100.15-41.45-32.92-82.76-65.73-126.1-100.15h254.99Z"/>
  <path class="cls-1" d="M285.18,251.69c37.34-29.01,73.77-57.31,111.22-86.42v167.28c-37.15-27.01-73.6-53.51-111.22-80.87Z"/>
  <path class="cls-1" d="M103.19,331.58v-164.96c36.33,28.84,71.58,56.82,107.59,85.41-35.97,26.6-71.16,52.62-107.59,79.56Z"/>
</svg>