<?xml version="1.0" encoding="UTF-8"?>
<svg id="Layer_1" data-name="Layer 1" xmlns="http://www.w3.org/2000/svg" viewBox="0 0 500 500">
  <defs>
    <style>
      .cls-1 {
        fill: #000;
      }

      .cls-1, .cls-2 {
        stroke-width: 0px;
      }

      .cls-2 {
        fill: #fff;
      }
    </style>
  </defs>
  <circle class="cls-1" cx="250" cy="250" r="250"/>
  <path class="cls-2" d="M234.22,262.82c-6.98,0-13.34-.6-19.57.1-33.86,3.79-51.96,43.63-31.83,71.05,11.26,15.33,30,23.64,51.3,17.09,18.77-5.77,31.38-23.23,31.38-42.83,0-69.9,0-139.8,0-209.71q0-6.86,6.9-6.87c9.55,0,19.11.19,28.65-.09,3.99-.12,5.55,1.31,6.38,5.1,6.1,27.83,32.31,54.11,63.6,57.5,2.99.32,6,.5,9.26.76v66.03c-21.57-2.46-40.86-10.28-59.44-22.88v5.82c0,34.3.02,68.6,0,102.9-.05,52.01-35.71,93.67-87.21,100.67-30.13,4.1-56.64-4.89-80.08-24.48-47.5-39.69-47.86-123.78,17.1-162.58,18.6-11.11,39.11-13.58,60.36-11.66,2.16.2,3.41.76,3.39,3.34-.1,16.79-.07,33.58-.1,50.36,0,.41-.21.82-.09.36Z"/>
</svg>