<?xml version="1.0" encoding="UTF-8"?>
<svg id="Layer_1" data-name="Layer 1" xmlns="http://www.w3.org/2000/svg" viewBox="0 0 500 500">
  <defs>
    <style>
      .cls-1 {
        fill: #000;
      }

      .cls-1, .cls-2 {
        stroke-width: 0px;
      }

      .cls-2 {
        fill: #fff;
      }
    </style>
  </defs>
  <path class="cls-1" d="M250.12,0c140.46.08,252.49,116.44,249.84,254.84-2.56,133.93-112.89,246.02-251.65,245.16C109.63,499.14-2.58,384.31.05,245.17,2.59,110.6,113.08-.03,250.12,0ZM412.05,251.09c0-23.42,0-46.83,0-70.25-.01-49.53-42.12-91.8-91.63-91.87-46.96-.07-93.92-.07-140.88,0-48.81.07-91.14,41.49-91.59,90.32-.44,47.74-.39,95.49-.01,143.24.38,47.84,40.74,89.56,88.49,90.47,48.25.92,96.54,1.04,144.79.09,51.56-1.01,90.83-42.54,90.83-94.11,0-22.63,0-45.26,0-67.9Z"/>
  <path class="cls-2" d="M412.05,251.09c0,22.63,0,45.26,0,67.9,0,51.57-39.28,93.09-90.83,94.11-48.25.95-96.54.83-144.79-.09-47.75-.91-88.11-42.64-88.49-90.47-.38-47.74-.43-95.49.01-143.24.45-48.82,42.78-90.24,91.59-90.32,46.96-.07,93.92-.07,140.88,0,49.51.07,91.62,42.34,91.63,91.87,0,23.42,0,46.83,0,70.25ZM382.11,252.02c0-23.55.07-47.09-.02-70.64-.13-34.01-27.87-61.59-61.84-61.6-46.82,0-93.65,0-140.47,0-2.09,0-4.19.03-6.26.28-32.92,4.08-55.7,29.94-55.7,63.21,0,45.52,0,91.04,0,136.57,0,36.81,26.46,63.99,63.28,64.24,45.91.31,91.82.29,137.73,0,36.83-.23,63.29-27.36,63.29-64.19,0-22.63,0-45.26,0-67.89Z"/>
  <path class="cls-1" d="M382.11,252.02c0,22.63,0,45.26,0,67.89,0,36.83-26.46,63.96-63.29,64.19-45.91.28-91.82.3-137.73,0-36.82-.25-63.28-27.43-63.28-64.24,0-45.52,0-91.04,0-136.57,0-33.27,22.78-59.14,55.7-63.21,2.07-.26,4.17-.28,6.26-.28,46.82-.01,93.65-.02,140.47,0,33.97,0,61.71,27.58,61.84,61.6.09,23.55.02,47.09.02,70.64ZM250.04,336.14c46.61-.01,84.24-37.78,84.17-84.5-.07-46.41-37.79-84-84.28-84-46.37,0-83.89,37.44-84.27,84.11-.38,46.21,37.81,84.4,84.38,84.38ZM336.75,184.21c11.05.07,19.72-8.47,19.78-19.49.07-11.01-8.55-19.79-19.48-19.85-10.86-.06-19.8,8.7-19.93,19.55-.13,10.78,8.74,19.73,19.62,19.79Z"/>
  <path class="cls-2" d="M250.04,336.14c-46.57.01-84.76-38.18-84.38-84.38.38-46.67,37.9-84.11,84.27-84.11,46.5,0,84.21,37.59,84.28,84,.07,46.71-37.56,84.49-84.17,84.5ZM195.6,250.66c-1.62,28.43,22.26,54.03,51.96,55.69,28.81,1.61,55.09-21.77,56.73-50.46,1.77-30.89-20.99-56.78-51.5-58.35-31.08-1.6-56.68,23.07-57.2,53.13Z"/>
  <path class="cls-2" d="M336.75,184.21c-10.89-.06-19.76-9.01-19.62-19.79.13-10.85,9.07-19.62,19.93-19.55,10.93.06,19.55,8.84,19.48,19.85-.07,11.02-8.73,19.56-19.78,19.49Z"/>
  <path class="cls-1" d="M195.6,250.66c.52-30.06,26.12-54.73,57.2-53.13,30.51,1.57,53.26,27.46,51.5,58.35-1.64,28.7-27.92,52.08-56.73,50.46-29.71-1.66-53.59-27.26-51.96-55.69Z"/>
</svg>