<?xml version="1.0" encoding="UTF-8"?>
<svg id="Layer_1" data-name="Layer 1" xmlns="http://www.w3.org/2000/svg" viewBox="0 0 500 500">
  <defs>
    <style>
      .cls-1 {
        fill: #000;
      }

      .cls-1, .cls-2 {
        stroke-width: 0px;
      }

      .cls-2 {
        fill: #fff;
      }
    </style>
  </defs>
  <circle class="cls-1" cx="250" cy="250" r="250"/>
  <g>
    <path class="cls-2" d="M387.59,365.6h-53.11c0-1.47,0-2.81,0-4.14,0-30.43.15-60.85-.14-91.28-.05-5.38-1.13-11.08-3.17-16.03-5.34-12.94-19.51-19.52-34.99-17.09-17.77,2.79-29.08,15.08-29.79,33.36-.52,13.3-.2,26.63-.22,39.95-.02,17.11,0,34.21,0,51.32,0,1.23,0,2.46,0,3.89h-52.58v-174.46h49.39v24.31c1.07-.99,1.57-1.34,1.94-1.81,23.1-28.85,70.76-36.49,101.67-9.09,11.03,9.78,16.23,22.89,19.59,36.78,1.04,4.3,1.35,8.87,1.36,13.31.11,35.48.06,70.95.06,106.43v4.55Z"/>
    <path class="cls-2" d="M182.98,191.06v174.47h-53.81v-174.47h53.81Z"/>
    <path class="cls-2" d="M187.15,134.11c-.07,17.25-13.89,30.88-31.26,30.81-17.15-.07-31.02-14.11-30.89-31.28.14-17.35,14.07-30.87,31.7-30.75,17.01.11,30.51,13.95,30.44,31.22Z"/>
  </g>
</svg>