<?xml version="1.0" encoding="UTF-8"?>
<svg id="Layer_1" data-name="Layer 1" xmlns="http://www.w3.org/2000/svg" viewBox="0 0 500 500">
  <defs>
    <style>
      .cls-1 {
        fill: #000;
      }

      .cls-1, .cls-2 {
        stroke-width: 0px;
      }

      .cls-2 {
        fill: #fff;
      }
    </style>
  </defs>
  <path class="cls-1" d="M249.4,500C111.46,499.83-.19,387.67,0,249.45.19,110.95,112.57-.16,252.31,0c136.1.15,248.31,113.72,247.69,250.68-.63,138.37-112.31,249.49-250.59,249.32ZM227.6,281.33c26.45,35.41,51.37,68.93,76.55,102.25,3.24,4.28,7.76,10.59,11.86,10.73,28.33.94,56.71.5,88.33.5-43.3-58.12-84.27-113.12-125.66-168.68,36.97-40.15,73.01-79.27,109.83-119.25-17.38-4.77-28.27-.36-38.08,11.62-13.93,17.01-29.55,32.64-44.53,48.78-12.89,13.9-25.9,27.69-39.6,42.32-24.3-32.55-47.09-63.42-70.38-93.91-3.42-4.48-9.13-9.97-13.95-10.14-27.35-.97-54.75-.47-85.68-.47,41.02,55.09,79.88,107.29,119.12,159.99-39.69,43.06-78.17,84.81-117.31,127.27,22.19,4.87,22.45,4.79,35.23-9.03,31-33.54,62.01-67.07,94.28-101.98Z"/>
  <path class="cls-2" d="M227.6,281.33c-32.27,34.91-63.27,68.44-94.28,101.98-12.78,13.82-13.04,13.9-35.23,9.03,39.14-42.46,77.62-84.21,117.31-127.27-39.24-52.7-78.1-104.9-119.12-159.99,30.94,0,58.34-.5,85.68.47,4.82.17,10.53,5.66,13.95,10.14,23.29,30.49,46.08,61.36,70.38,93.91,13.7-14.63,26.7-28.43,39.6-42.32,14.98-16.14,30.6-31.77,44.53-48.78,9.81-11.98,20.69-16.38,38.08-11.62-36.82,39.98-72.85,79.1-109.83,119.25,41.39,55.56,82.37,110.56,125.66,168.68-31.62,0-60,.45-88.33-.5-4.1-.14-8.63-6.44-11.86-10.73-25.18-33.32-50.1-66.85-76.55-102.25ZM138.26,127.14c3.83,5.53,7.11,10.58,10.7,15.39,53.27,71.42,106.58,142.8,159.87,214.19,15.38,20.61,26.46,23.89,53.37,15.21-3.4-4.71-6.59-9.26-9.92-13.71-51.25-68.69-103.56-136.62-153.19-206.47-15.85-22.31-32.53-32.2-60.84-24.61Z"/>
  <path class="cls-1" d="M138.26,127.14c28.31-7.59,44.99,2.3,60.84,24.61,49.63,69.85,101.94,137.78,153.19,206.47,3.32,4.45,6.51,9,9.92,13.71-26.92,8.68-37.99,5.4-53.37-15.21-53.29-71.39-106.6-142.78-159.87-214.19-3.59-4.81-6.87-9.86-10.7-15.39Z"/>
</svg>