<?xml version="1.0" encoding="UTF-8"?>
<svg id="Layer_1" data-name="Layer 1" xmlns="http://www.w3.org/2000/svg" viewBox="0 0 2423.87 1195.25">
  <defs>
    <style>
      .cls-1 {
        stroke-width: 0px;
      }
    </style>
  </defs>
  <path class="cls-1" d="m1960.12,494.6c-1.54-22.52-9.19-47.92-33.68-47.92h-46.77c-12.67,0-13.99,1.32-13.99,13.97v100.83h54.21c31.47,0,33.64-5.22,40.19-35.79l14.56.05v91.24l-14.99-.05c-5.7-30.57-8.72-37.53-39.76-37.53h-54.21v78.12c0,37.99,4.34,39.74,44.14,43.22v12.23h-121.52v-12.23c35.42-2.63,39.33-5.69,39.33-43.22v-172.84c0-37.99-4.38-39.74-39.33-43.22v-12.66h186.35s0,66,0,66l-14.52-.2Z"/>
  <path class="cls-1" d="m1506.85,428.8h-239.83v68.63h13.14c3.92-13.99,5.3-28.41,10.11-36.27,6.98-11.82,11.36-14.88,35.42-14.88l42.23.02v211.26c0,34.1-2,40.52-43.54,43.16v12.24h125.14v-12.24c-41.54-2.63-43.54-9.06-43.54-43.16v-211.26l42.23-.02c24.06,0,28.44,3.06,35.42,14.88,4.81,7.87,6.19,22.28,10.11,36.27h13.14v-68.63Z"/>
  <path class="cls-1" d="m1197.07,712.96v-12.24c28.41-3.49,31.93-7.87,25.81-24.49-5.7-17.05-14.45-38.91-23.6-66.42h-94.44c-7.01,19.65-13.56,36.7-19.68,54.64-9.61,28.41-3.49,31.89,32.36,36.27v12.24h-100.99v-12.24c27.55-3.49,34.53-6.55,49.83-45.88l89.11-226.03h17.62c27.55,74.75,55.44,151.28,83,226.89,13.99,38.05,17.94,41.54,48.98,45.03v12.24h-108Zm-43.71-233.01c-13.99,37.59-28.87,77.39-41.97,111.91h81.76l-39.8-111.91Z"/>
  <path class="cls-1" d="m999.79,643.49l-.08,69.47h-203.29v-12.24c39.8-3.92,43.28-6.12,43.28-43.28v-173.53c0-37.16-7.31-39.36-42.26-42.84v-12.24h120.07s0,12.23,0,12.23c-34.95,3.49-39.76,5.23-39.76,42.86v177.91c0,26.66,3.49,32.78,28.41,33.21.43,0,31.89.46,34.53.46,22.32,0,28.87-2.63,38.91-13.56,10.93-11.36,8.93-28.02,9.29-38.43h10.91Z"/>
  <g>
    <path class="cls-1" d="m1654.82,442.45c50.72,6.25,95.42,53.94,95.42,136.35,0,27.94-4.46,44.61-12.54,62.57,11.41-8.06,22.59-25.45,31.85-43.71,9.44-18.3,13.88-32.18,18.74-52.71-9.65-72.57-69.64-119.43-136.74-119.43-79.82,0-131.38,54.82-142.37,119.77,15.18-62.68,80.18-113.3,145.63-102.84Z"/>
    <path class="cls-1" d="m1641.76,694.92c-53.24-8.33-95.84-63.14-95.84-135.48,0-27.97,8.72-45.44,17.9-63.55-15.39,12.02-26.07,26.11-35.87,45.44-8.39,16.27-14.37,34.02-18.92,53.18,10.44,67.97,65.95,118.15,139.94,118.15,69.56,0,126.27-44.25,138.63-117.18-15.97,61.89-80.98,111.4-145.85,99.43Z"/>
  </g>
  <path class="cls-1" d="m796.41,509.67c-.21-28.83-11.82-49.41-28.87-62.08-17.9-13.1-42.82-18.79-73.86-18.79h-112.8v12.24c26.53,2.68,36.62,5.14,39.37,23.13v193.72c0,36.27-1.74,38.91-39.37,42.82v12.24h120.67v-12.24c-40.22-4.38-43.28-5.23-43.28-41.97v-66.88s138.78,3.79,138.15-82.19Zm-138.15-24.74v-37.46c11.6-3.04,23.61-4.45,36-3.41.87.08,1.75.15,2.63.25,8.72,1,18.6,3.47,25.16,6.72.76.38,1.53.75,2.27,1.15,18.4,9.76,30.58,27.72,31.44,58.8,1.91,69.63-90.93,64.8-97.5,64.8v-90.86Z"/>
</svg>